0
SECTION
2
HEADER
9
$INSUNITS
70
4
0
ENDSEC
0
SECTION
2
TABLES
0
TABLE
2
LTYPE
0
LTYPE
72
65
70
64
2
CONTINUOUS
3
______
73
0
40
0
0
ENDTAB
0
TABLE
2
LAYER
0
ENDTAB
0
ENDSEC
0
SECTION
2
ENTITIES
0
LINE
8
0
10
60.175
20
-2.525
11
73.175
21
-2.525
0
LINE
8
0
10
60.175
20
-16.525
11
73.175
21
-16.525
0
LINE
8
0
10
59.675
20
-3.025
11
59.675
21
-16.025
0
LINE
8
0
10
73.675
20
-3.025
11
73.675
21
-16.025
0
ARC
8
0
10
60.175
20
-3.025
40
0.5
50
90
51
180
0
ARC
8
0
10
73.175
20
-3.025
40
0.5
50
0
51
90
0
ARC
8
0
10
60.175
20
-16.025
40
0.5
50
180
51
270
0
ARC
8
0
10
73.175
20
-16.025
40
0.5
50
270
51
0
0
LINE
8
0
10
250.675
20
-2.525
11
263.675
21
-2.525
0
LINE
8
0
10
250.675
20
-16.525
11
263.675
21
-16.525
0
LINE
8
0
10
250.175
20
-3.025
11
250.175
21
-16.025
0
LINE
8
0
10
264.175
20
-3.025
11
264.175
21
-16.025
0
ARC
8
0
10
250.675
20
-3.025
40
0.5
50
90
51
180
0
ARC
8
0
10
263.675
20
-3.025
40
0.5
50
0
51
90
0
ARC
8
0
10
250.675
20
-16.025
40
0.5
50
180
51
270
0
ARC
8
0
10
263.675
20
-16.025
40
0.5
50
270
51
0
0
LINE
8
0
10
41.125
20
-7.2875
11
54.125
21
-7.2875
0
LINE
8
0
10
41.125
20
-21.2875
11
54.125
21
-21.2875
0
LINE
8
0
10
40.625
20
-7.7875
11
40.625
21
-20.7875
0
LINE
8
0
10
54.625
20
-7.7875
11
54.625
21
-20.7875
0
ARC
8
0
10
41.125
20
-7.7875
40
0.5
50
90
51
180
0
ARC
8
0
10
54.125
20
-7.7875
40
0.5
50
0
51
90
0
ARC
8
0
10
41.125
20
-20.7875
40
0.5
50
180
51
270
0
ARC
8
0
10
54.125
20
-20.7875
40
0.5
50
270
51
0
0
LINE
8
0
10
79.225
20
-7.2875
11
92.225
21
-7.2875
0
LINE
8
0
10
79.225
20
-21.2875
11
92.225
21
-21.2875
0
LINE
8
0
10
78.725
20
-7.7875
11
78.725
21
-20.7875
0
LINE
8
0
10
92.725
20
-7.7875
11
92.725
21
-20.7875
0
ARC
8
0
10
79.225
20
-7.7875
40
0.5
50
90
51
180
0
ARC
8
0
10
92.225
20
-7.7875
40
0.5
50
0
51
90
0
ARC
8
0
10
79.225
20
-20.7875
40
0.5
50
180
51
270
0
ARC
8
0
10
92.225
20
-20.7875
40
0.5
50
270
51
0
0
LINE
8
0
10
231.625
20
-7.2875
11
244.625
21
-7.2875
0
LINE
8
0
10
231.625
20
-21.2875
11
244.625
21
-21.2875
0
LINE
8
0
10
231.125
20
-7.7875
11
231.125
21
-20.7875
0
LINE
8
0
10
245.125
20
-7.7875
11
245.125
21
-20.7875
0
ARC
8
0
10
231.625
20
-7.7875
40
0.5
50
90
51
180
0
ARC
8
0
10
244.625
20
-7.7875
40
0.5
50
0
51
90
0
ARC
8
0
10
231.625
20
-20.7875
40
0.5
50
180
51
270
0
ARC
8
0
10
244.625
20
-20.7875
40
0.5
50
270
51
0
0
LINE
8
0
10
269.725
20
-7.2875
11
282.725
21
-7.2875
0
LINE
8
0
10
269.725
20
-21.2875
11
282.725
21
-21.2875
0
LINE
8
0
10
269.225
20
-7.7875
11
269.225
21
-20.7875
0
LINE
8
0
10
283.225
20
-7.7875
11
283.225
21
-20.7875
0
ARC
8
0
10
269.725
20
-7.7875
40
0.5
50
90
51
180
0
ARC
8
0
10
282.725
20
-7.7875
40
0.5
50
0
51
90
0
ARC
8
0
10
269.725
20
-20.7875
40
0.5
50
180
51
270
0
ARC
8
0
10
282.725
20
-20.7875
40
0.5
50
270
51
0
0
LINE
8
0
10
98.275
20
-9.764
11
111.275
21
-9.764
0
LINE
8
0
10
98.275
20
-23.764
11
111.275
21
-23.764
0
LINE
8
0
10
97.775
20
-10.264
11
97.775
21
-23.264
0
LINE
8
0
10
111.775
20
-10.264
11
111.775
21
-23.264
0
ARC
8
0
10
98.275
20
-10.264
40
0.5
50
90
51
180
0
ARC
8
0
10
111.275
20
-10.264
40
0.5
50
0
51
90
0
ARC
8
0
10
98.275
20
-23.264
40
0.5
50
180
51
270
0
ARC
8
0
10
111.275
20
-23.264
40
0.5
50
270
51
0
0
LINE
8
0
10
212.575
20
-9.764
11
225.575
21
-9.764
0
LINE
8
0
10
212.575
20
-23.764
11
225.575
21
-23.764
0
LINE
8
0
10
212.075
20
-10.264
11
212.075
21
-23.264
0
LINE
8
0
10
226.075
20
-10.264
11
226.075
21
-23.264
0
ARC
8
0
10
212.575
20
-10.264
40
0.5
50
90
51
180
0
ARC
8
0
10
225.575
20
-10.264
40
0.5
50
0
51
90
0
ARC
8
0
10
212.575
20
-23.264
40
0.5
50
180
51
270
0
ARC
8
0
10
225.575
20
-23.264
40
0.5
50
270
51
0
0
LINE
8
0
10
117.325
20
-12.05
11
130.325
21
-12.05
0
LINE
8
0
10
117.325
20
-26.05
11
130.325
21
-26.05
0
LINE
8
0
10
116.825
20
-12.55
11
116.825
21
-25.55
0
LINE
8
0
10
130.825
20
-12.55
11
130.825
21
-25.55
0
ARC
8
0
10
117.325
20
-12.55
40
0.5
50
90
51
180
0
ARC
8
0
10
130.325
20
-12.55
40
0.5
50
0
51
90
0
ARC
8
0
10
117.325
20
-25.55
40
0.5
50
180
51
270
0
ARC
8
0
10
130.325
20
-25.55
40
0.5
50
270
51
0
0
LINE
8
0
10
193.525
20
-12.05
11
206.525
21
-12.05
0
LINE
8
0
10
193.525
20
-26.05
11
206.525
21
-26.05
0
LINE
8
0
10
193.025
20
-12.55
11
193.025
21
-25.55
0
LINE
8
0
10
207.025
20
-12.55
11
207.025
21
-25.55
0
ARC
8
0
10
193.525
20
-12.55
40
0.5
50
90
51
180
0
ARC
8
0
10
206.525
20
-12.55
40
0.5
50
0
51
90
0
ARC
8
0
10
193.525
20
-25.55
40
0.5
50
180
51
270
0
ARC
8
0
10
206.525
20
-25.55
40
0.5
50
270
51
0
0
LINE
8
0
10
3.025
20
-16.8125
11
16.025
21
-16.8125
0
LINE
8
0
10
3.025
20
-30.8125
11
16.025
21
-30.8125
0
LINE
8
0
10
2.525
20
-17.3125
11
2.525
21
-30.3125
0
LINE
8
0
10
16.525
20
-17.3125
11
16.525
21
-30.3125
0
ARC
8
0
10
3.025
20
-17.3125
40
0.5
50
90
51
180
0
ARC
8
0
10
16.025
20
-17.3125
40
0.5
50
0
51
90
0
ARC
8
0
10
3.025
20
-30.3125
40
0.5
50
180
51
270
0
ARC
8
0
10
16.025
20
-30.3125
40
0.5
50
270
51
0
0
LINE
8
0
10
22.075
20
-16.8125
11
35.075
21
-16.8125
0
LINE
8
0
10
22.075
20
-30.8125
11
35.075
21
-30.8125
0
LINE
8
0
10
21.575
20
-17.3125
11
21.575
21
-30.3125
0
LINE
8
0
10
35.575
20
-17.3125
11
35.575
21
-30.3125
0
ARC
8
0
10
22.075
20
-17.3125
40
0.5
50
90
51
180
0
ARC
8
0
10
35.075
20
-17.3125
40
0.5
50
0
51
90
0
ARC
8
0
10
22.075
20
-30.3125
40
0.5
50
180
51
270
0
ARC
8
0
10
35.075
20
-30.3125
40
0.5
50
270
51
0
0
LINE
8
0
10
288.775
20
-16.8125
11
301.775
21
-16.8125
0
LINE
8
0
10
288.775
20
-30.8125
11
301.775
21
-30.8125
0
LINE
8
0
10
288.275
20
-17.3125
11
288.275
21
-30.3125
0
LINE
8
0
10
302.275
20
-17.3125
11
302.275
21
-30.3125
0
ARC
8
0
10
288.775
20
-17.3125
40
0.5
50
90
51
180
0
ARC
8
0
10
301.775
20
-17.3125
40
0.5
50
0
51
90
0
ARC
8
0
10
288.775
20
-30.3125
40
0.5
50
180
51
270
0
ARC
8
0
10
301.775
20
-30.3125
40
0.5
50
270
51
0
0
LINE
8
0
10
307.825
20
-16.8125
11
320.825
21
-16.8125
0
LINE
8
0
10
307.825
20
-30.8125
11
320.825
21
-30.8125
0
LINE
8
0
10
307.325
20
-17.3125
11
307.325
21
-30.3125
0
LINE
8
0
10
321.325
20
-17.3125
11
321.325
21
-30.3125
0
ARC
8
0
10
307.825
20
-17.3125
40
0.5
50
90
51
180
0
ARC
8
0
10
320.825
20
-17.3125
40
0.5
50
0
51
90
0
ARC
8
0
10
307.825
20
-30.3125
40
0.5
50
180
51
270
0
ARC
8
0
10
320.825
20
-30.3125
40
0.5
50
270
51
0
0
LINE
8
0
10
60.175
20
-21.575
11
73.175
21
-21.575
0
LINE
8
0
10
60.175
20
-35.575
11
73.175
21
-35.575
0
LINE
8
0
10
59.675
20
-22.075
11
59.675
21
-35.075
0
LINE
8
0
10
73.675
20
-22.075
11
73.675
21
-35.075
0
ARC
8
0
10
60.175
20
-22.075
40
0.5
50
90
51
180
0
ARC
8
0
10
73.175
20
-22.075
40
0.5
50
0
51
90
0
ARC
8
0
10
60.175
20
-35.075
40
0.5
50
180
51
270
0
ARC
8
0
10
73.175
20
-35.075
40
0.5
50
270
51
0
0
LINE
8
0
10
250.675
20
-21.575
11
263.675
21
-21.575
0
LINE
8
0
10
250.675
20
-35.575
11
263.675
21
-35.575
0
LINE
8
0
10
250.175
20
-22.075
11
250.175
21
-35.075
0
LINE
8
0
10
264.175
20
-22.075
11
264.175
21
-35.075
0
ARC
8
0
10
250.675
20
-22.075
40
0.5
50
90
51
180
0
ARC
8
0
10
263.675
20
-22.075
40
0.5
50
0
51
90
0
ARC
8
0
10
250.675
20
-35.075
40
0.5
50
180
51
270
0
ARC
8
0
10
263.675
20
-35.075
40
0.5
50
270
51
0
0
LINE
8
0
10
41.125
20
-26.3375
11
54.125
21
-26.3375
0
LINE
8
0
10
41.125
20
-40.3375
11
54.125
21
-40.3375
0
LINE
8
0
10
40.625
20
-26.8375
11
40.625
21
-39.8375
0
LINE
8
0
10
54.625
20
-26.8375
11
54.625
21
-39.8375
0
ARC
8
0
10
41.125
20
-26.8375
40
0.5
50
90
51
180
0
ARC
8
0
10
54.125
20
-26.8375
40
0.5
50
0
51
90
0
ARC
8
0
10
41.125
20
-39.8375
40
0.5
50
180
51
270
0
ARC
8
0
10
54.125
20
-39.8375
40
0.5
50
270
51
0
0
LINE
8
0
10
79.225
20
-26.3375
11
92.225
21
-26.3375
0
LINE
8
0
10
79.225
20
-40.3375
11
92.225
21
-40.3375
0
LINE
8
0
10
78.725
20
-26.8375
11
78.725
21
-39.8375
0
LINE
8
0
10
92.725
20
-26.8375
11
92.725
21
-39.8375
0
ARC
8
0
10
79.225
20
-26.8375
40
0.5
50
90
51
180
0
ARC
8
0
10
92.225
20
-26.8375
40
0.5
50
0
51
90
0
ARC
8
0
10
79.225
20
-39.8375
40
0.5
50
180
51
270
0
ARC
8
0
10
92.225
20
-39.8375
40
0.5
50
270
51
0
0
LINE
8
0
10
231.625
20
-26.3375
11
244.625
21
-26.3375
0
LINE
8
0
10
231.625
20
-40.3375
11
244.625
21
-40.3375
0
LINE
8
0
10
231.125
20
-26.8375
11
231.125
21
-39.8375
0
LINE
8
0
10
245.125
20
-26.8375
11
245.125
21
-39.8375
0
ARC
8
0
10
231.625
20
-26.8375
40
0.5
50
90
51
180
0
ARC
8
0
10
244.625
20
-26.8375
40
0.5
50
0
51
90
0
ARC
8
0
10
231.625
20
-39.8375
40
0.5
50
180
51
270
0
ARC
8
0
10
244.625
20
-39.8375
40
0.5
50
270
51
0
0
LINE
8
0
10
269.725
20
-26.3375
11
282.725
21
-26.3375
0
LINE
8
0
10
269.725
20
-40.3375
11
282.725
21
-40.3375
0
LINE
8
0
10
269.225
20
-26.8375
11
269.225
21
-39.8375
0
LINE
8
0
10
283.225
20
-26.8375
11
283.225
21
-39.8375
0
ARC
8
0
10
269.725
20
-26.8375
40
0.5
50
90
51
180
0
ARC
8
0
10
282.725
20
-26.8375
40
0.5
50
0
51
90
0
ARC
8
0
10
269.725
20
-39.8375
40
0.5
50
180
51
270
0
ARC
8
0
10
282.725
20
-39.8375
40
0.5
50
270
51
0
0
LINE
8
0
10
98.275
20
-28.814
11
111.275
21
-28.814
0
LINE
8
0
10
98.275
20
-42.814
11
111.275
21
-42.814
0
LINE
8
0
10
97.775
20
-29.314
11
97.775
21
-42.314
0
LINE
8
0
10
111.775
20
-29.314
11
111.775
21
-42.314
0
ARC
8
0
10
98.275
20
-29.314
40
0.5
50
90
51
180
0
ARC
8
0
10
111.275
20
-29.314
40
0.5
50
0
51
90
0
ARC
8
0
10
98.275
20
-42.314
40
0.5
50
180
51
270
0
ARC
8
0
10
111.275
20
-42.314
40
0.5
50
270
51
0
0
LINE
8
0
10
212.575
20
-28.814
11
225.575
21
-28.814
0
LINE
8
0
10
212.575
20
-42.814
11
225.575
21
-42.814
0
LINE
8
0
10
212.075
20
-29.314
11
212.075
21
-42.314
0
LINE
8
0
10
226.075
20
-29.314
11
226.075
21
-42.314
0
ARC
8
0
10
212.575
20
-29.314
40
0.5
50
90
51
180
0
ARC
8
0
10
225.575
20
-29.314
40
0.5
50
0
51
90
0
ARC
8
0
10
212.575
20
-42.314
40
0.5
50
180
51
270
0
ARC
8
0
10
225.575
20
-42.314
40
0.5
50
270
51
0
0
LINE
8
0
10
117.325
20
-31.1
11
130.325
21
-31.1
0
LINE
8
0
10
117.325
20
-45.1
11
130.325
21
-45.1
0
LINE
8
0
10
116.825
20
-31.6
11
116.825
21
-44.6
0
LINE
8
0
10
130.825
20
-31.6
11
130.825
21
-44.6
0
ARC
8
0
10
117.325
20
-31.6
40
0.5
50
90
51
180
0
ARC
8
0
10
130.325
20
-31.6
40
0.5
50
0
51
90
0
ARC
8
0
10
117.325
20
-44.6
40
0.5
50
180
51
270
0
ARC
8
0
10
130.325
20
-44.6
40
0.5
50
270
51
0
0
LINE
8
0
10
193.525
20
-31.1
11
206.525
21
-31.1
0
LINE
8
0
10
193.525
20
-45.1
11
206.525
21
-45.1
0
LINE
8
0
10
193.025
20
-31.6
11
193.025
21
-44.6
0
LINE
8
0
10
207.025
20
-31.6
11
207.025
21
-44.6
0
ARC
8
0
10
193.525
20
-31.6
40
0.5
50
90
51
180
0
ARC
8
0
10
206.525
20
-31.6
40
0.5
50
0
51
90
0
ARC
8
0
10
193.525
20
-44.6
40
0.5
50
180
51
270
0
ARC
8
0
10
206.525
20
-44.6
40
0.5
50
270
51
0
0
LINE
8
0
10
3.025
20
-35.8625
11
16.025
21
-35.8625
0
LINE
8
0
10
3.025
20
-49.8625
11
16.025
21
-49.8625
0
LINE
8
0
10
2.525
20
-36.3625
11
2.525
21
-49.3625
0
LINE
8
0
10
16.525
20
-36.3625
11
16.525
21
-49.3625
0
ARC
8
0
10
3.025
20
-36.3625
40
0.5
50
90
51
180
0
ARC
8
0
10
16.025
20
-36.3625
40
0.5
50
0
51
90
0
ARC
8
0
10
3.025
20
-49.3625
40
0.5
50
180
51
270
0
ARC
8
0
10
16.025
20
-49.3625
40
0.5
50
270
51
0
0
LINE
8
0
10
22.075
20
-35.8625
11
35.075
21
-35.8625
0
LINE
8
0
10
22.075
20
-49.8625
11
35.075
21
-49.8625
0
LINE
8
0
10
21.575
20
-36.3625
11
21.575
21
-49.3625
0
LINE
8
0
10
35.575
20
-36.3625
11
35.575
21
-49.3625
0
ARC
8
0
10
22.075
20
-36.3625
40
0.5
50
90
51
180
0
ARC
8
0
10
35.075
20
-36.3625
40
0.5
50
0
51
90
0
ARC
8
0
10
22.075
20
-49.3625
40
0.5
50
180
51
270
0
ARC
8
0
10
35.075
20
-49.3625
40
0.5
50
270
51
0
0
LINE
8
0
10
288.775
20
-35.8625
11
301.775
21
-35.8625
0
LINE
8
0
10
288.775
20
-49.8625
11
301.775
21
-49.8625
0
LINE
8
0
10
288.275
20
-36.3625
11
288.275
21
-49.3625
0
LINE
8
0
10
302.275
20
-36.3625
11
302.275
21
-49.3625
0
ARC
8
0
10
288.775
20
-36.3625
40
0.5
50
90
51
180
0
ARC
8
0
10
301.775
20
-36.3625
40
0.5
50
0
51
90
0
ARC
8
0
10
288.775
20
-49.3625
40
0.5
50
180
51
270
0
ARC
8
0
10
301.775
20
-49.3625
40
0.5
50
270
51
0
0
LINE
8
0
10
307.825
20
-35.8625
11
320.825
21
-35.8625
0
LINE
8
0
10
307.825
20
-49.8625
11
320.825
21
-49.8625
0
LINE
8
0
10
307.325
20
-36.3625
11
307.325
21
-49.3625
0
LINE
8
0
10
321.325
20
-36.3625
11
321.325
21
-49.3625
0
ARC
8
0
10
307.825
20
-36.3625
40
0.5
50
90
51
180
0
ARC
8
0
10
320.825
20
-36.3625
40
0.5
50
0
51
90
0
ARC
8
0
10
307.825
20
-49.3625
40
0.5
50
180
51
270
0
ARC
8
0
10
320.825
20
-49.3625
40
0.5
50
270
51
0
0
LINE
8
0
10
60.175
20
-40.625
11
73.175
21
-40.625
0
LINE
8
0
10
60.175
20
-54.625
11
73.175
21
-54.625
0
LINE
8
0
10
59.675
20
-41.125
11
59.675
21
-54.125
0
LINE
8
0
10
73.675
20
-41.125
11
73.675
21
-54.125
0
ARC
8
0
10
60.175
20
-41.125
40
0.5
50
90
51
180
0
ARC
8
0
10
73.175
20
-41.125
40
0.5
50
0
51
90
0
ARC
8
0
10
60.175
20
-54.125
40
0.5
50
180
51
270
0
ARC
8
0
10
73.175
20
-54.125
40
0.5
50
270
51
0
0
LINE
8
0
10
250.675
20
-40.625
11
263.675
21
-40.625
0
LINE
8
0
10
250.675
20
-54.625
11
263.675
21
-54.625
0
LINE
8
0
10
250.175
20
-41.125
11
250.175
21
-54.125
0
LINE
8
0
10
264.175
20
-41.125
11
264.175
21
-54.125
0
ARC
8
0
10
250.675
20
-41.125
40
0.5
50
90
51
180
0
ARC
8
0
10
263.675
20
-41.125
40
0.5
50
0
51
90
0
ARC
8
0
10
250.675
20
-54.125
40
0.5
50
180
51
270
0
ARC
8
0
10
263.675
20
-54.125
40
0.5
50
270
51
0
0
LINE
8
0
10
41.125
20
-45.3875
11
54.125
21
-45.3875
0
LINE
8
0
10
41.125
20
-59.3875
11
54.125
21
-59.3875
0
LINE
8
0
10
40.625
20
-45.8875
11
40.625
21
-58.8875
0
LINE
8
0
10
54.625
20
-45.8875
11
54.625
21
-58.8875
0
ARC
8
0
10
41.125
20
-45.8875
40
0.5
50
90
51
180
0
ARC
8
0
10
54.125
20
-45.8875
40
0.5
50
0
51
90
0
ARC
8
0
10
41.125
20
-58.8875
40
0.5
50
180
51
270
0
ARC
8
0
10
54.125
20
-58.8875
40
0.5
50
270
51
0
0
LINE
8
0
10
79.225
20
-45.3875
11
92.225
21
-45.3875
0
LINE
8
0
10
79.225
20
-59.3875
11
92.225
21
-59.3875
0
LINE
8
0
10
78.725
20
-45.8875
11
78.725
21
-58.8875
0
LINE
8
0
10
92.725
20
-45.8875
11
92.725
21
-58.8875
0
ARC
8
0
10
79.225
20
-45.8875
40
0.5
50
90
51
180
0
ARC
8
0
10
92.225
20
-45.8875
40
0.5
50
0
51
90
0
ARC
8
0
10
79.225
20
-58.8875
40
0.5
50
180
51
270
0
ARC
8
0
10
92.225
20
-58.8875
40
0.5
50
270
51
0
0
LINE
8
0
10
231.625
20
-45.3875
11
244.625
21
-45.3875
0
LINE
8
0
10
231.625
20
-59.3875
11
244.625
21
-59.3875
0
LINE
8
0
10
231.125
20
-45.8875
11
231.125
21
-58.8875
0
LINE
8
0
10
245.125
20
-45.8875
11
245.125
21
-58.8875
0
ARC
8
0
10
231.625
20
-45.8875
40
0.5
50
90
51
180
0
ARC
8
0
10
244.625
20
-45.8875
40
0.5
50
0
51
90
0
ARC
8
0
10
231.625
20
-58.8875
40
0.5
50
180
51
270
0
ARC
8
0
10
244.625
20
-58.8875
40
0.5
50
270
51
0
0
LINE
8
0
10
269.725
20
-45.3875
11
282.725
21
-45.3875
0
LINE
8
0
10
269.725
20
-59.3875
11
282.725
21
-59.3875
0
LINE
8
0
10
269.225
20
-45.8875
11
269.225
21
-58.8875
0
LINE
8
0
10
283.225
20
-45.8875
11
283.225
21
-58.8875
0
ARC
8
0
10
269.725
20
-45.8875
40
0.5
50
90
51
180
0
ARC
8
0
10
282.725
20
-45.8875
40
0.5
50
0
51
90
0
ARC
8
0
10
269.725
20
-58.8875
40
0.5
50
180
51
270
0
ARC
8
0
10
282.725
20
-58.8875
40
0.5
50
270
51
0
0
LINE
8
0
10
98.275
20
-47.864
11
111.275
21
-47.864
0
LINE
8
0
10
98.275
20
-61.864
11
111.275
21
-61.864
0
LINE
8
0
10
97.775
20
-48.364
11
97.775
21
-61.364
0
LINE
8
0
10
111.775
20
-48.364
11
111.775
21
-61.364
0
ARC
8
0
10
98.275
20
-48.364
40
0.5
50
90
51
180
0
ARC
8
0
10
111.275
20
-48.364
40
0.5
50
0
51
90
0
ARC
8
0
10
98.275
20
-61.364
40
0.5
50
180
51
270
0
ARC
8
0
10
111.275
20
-61.364
40
0.5
50
270
51
0
0
LINE
8
0
10
212.575
20
-47.864
11
225.575
21
-47.864
0
LINE
8
0
10
212.575
20
-61.864
11
225.575
21
-61.864
0
LINE
8
0
10
212.075
20
-48.364
11
212.075
21
-61.364
0
LINE
8
0
10
226.075
20
-48.364
11
226.075
21
-61.364
0
ARC
8
0
10
212.575
20
-48.364
40
0.5
50
90
51
180
0
ARC
8
0
10
225.575
20
-48.364
40
0.5
50
0
51
90
0
ARC
8
0
10
212.575
20
-61.364
40
0.5
50
180
51
270
0
ARC
8
0
10
225.575
20
-61.364
40
0.5
50
270
51
0
0
LINE
8
0
10
117.325
20
-50.15
11
130.325
21
-50.15
0
LINE
8
0
10
117.325
20
-64.15
11
130.325
21
-64.15
0
LINE
8
0
10
116.825
20
-50.65
11
116.825
21
-63.65
0
LINE
8
0
10
130.825
20
-50.65
11
130.825
21
-63.65
0
ARC
8
0
10
117.325
20
-50.65
40
0.5
50
90
51
180
0
ARC
8
0
10
130.325
20
-50.65
40
0.5
50
0
51
90
0
ARC
8
0
10
117.325
20
-63.65
40
0.5
50
180
51
270
0
ARC
8
0
10
130.325
20
-63.65
40
0.5
50
270
51
0
0
LINE
8
0
10
193.525
20
-50.15
11
206.525
21
-50.15
0
LINE
8
0
10
193.525
20
-64.15
11
206.525
21
-64.15
0
LINE
8
0
10
193.025
20
-50.65
11
193.025
21
-63.65
0
LINE
8
0
10
207.025
20
-50.65
11
207.025
21
-63.65
0
ARC
8
0
10
193.525
20
-50.65
40
0.5
50
90
51
180
0
ARC
8
0
10
206.525
20
-50.65
40
0.5
50
0
51
90
0
ARC
8
0
10
193.525
20
-63.65
40
0.5
50
180
51
270
0
ARC
8
0
10
206.525
20
-63.65
40
0.5
50
270
51
0
0
LINE
8
0
10
3.025
20
-54.9125
11
16.025
21
-54.9125
0
LINE
8
0
10
3.025
20
-68.9125
11
16.025
21
-68.9125
0
LINE
8
0
10
2.525
20
-55.4125
11
2.525
21
-68.4125
0
LINE
8
0
10
16.525
20
-55.4125
11
16.525
21
-68.4125
0
ARC
8
0
10
3.025
20
-55.4125
40
0.5
50
90
51
180
0
ARC
8
0
10
16.025
20
-55.4125
40
0.5
50
0
51
90
0
ARC
8
0
10
3.025
20
-68.4125
40
0.5
50
180
51
270
0
ARC
8
0
10
16.025
20
-68.4125
40
0.5
50
270
51
0
0
LINE
8
0
10
22.075
20
-54.9125
11
35.075
21
-54.9125
0
LINE
8
0
10
22.075
20
-68.9125
11
35.075
21
-68.9125
0
LINE
8
0
10
21.575
20
-55.4125
11
21.575
21
-68.4125
0
LINE
8
0
10
35.575
20
-55.4125
11
35.575
21
-68.4125
0
ARC
8
0
10
22.075
20
-55.4125
40
0.5
50
90
51
180
0
ARC
8
0
10
35.075
20
-55.4125
40
0.5
50
0
51
90
0
ARC
8
0
10
22.075
20
-68.4125
40
0.5
50
180
51
270
0
ARC
8
0
10
35.075
20
-68.4125
40
0.5
50
270
51
0
0
LINE
8
0
10
288.775
20
-54.9125
11
301.775
21
-54.9125
0
LINE
8
0
10
288.775
20
-68.9125
11
301.775
21
-68.9125
0
LINE
8
0
10
288.275
20
-55.4125
11
288.275
21
-68.4125
0
LINE
8
0
10
302.275
20
-55.4125
11
302.275
21
-68.4125
0
ARC
8
0
10
288.775
20
-55.4125
40
0.5
50
90
51
180
0
ARC
8
0
10
301.775
20
-55.4125
40
0.5
50
0
51
90
0
ARC
8
0
10
288.775
20
-68.4125
40
0.5
50
180
51
270
0
ARC
8
0
10
301.775
20
-68.4125
40
0.5
50
270
51
0
0
LINE
8
0
10
307.825
20
-54.9125
11
320.825
21
-54.9125
0
LINE
8
0
10
307.825
20
-68.9125
11
320.825
21
-68.9125
0
LINE
8
0
10
307.325
20
-55.4125
11
307.325
21
-68.4125
0
LINE
8
0
10
321.325
20
-55.4125
11
321.325
21
-68.4125
0
ARC
8
0
10
307.825
20
-55.4125
40
0.5
50
90
51
180
0
ARC
8
0
10
320.825
20
-55.4125
40
0.5
50
0
51
90
0
ARC
8
0
10
307.825
20
-68.4125
40
0.5
50
180
51
270
0
ARC
8
0
10
320.825
20
-68.4125
40
0.5
50
270
51
0
0
LINE
8
0
10
60.175
20
-59.675
11
73.175
21
-59.675
0
LINE
8
0
10
60.175
20
-73.675
11
73.175
21
-73.675
0
LINE
8
0
10
59.675
20
-60.175
11
59.675
21
-73.175
0
LINE
8
0
10
73.675
20
-60.175
11
73.675
21
-73.175
0
ARC
8
0
10
60.175
20
-60.175
40
0.5
50
90
51
180
0
ARC
8
0
10
73.175
20
-60.175
40
0.5
50
0
51
90
0
ARC
8
0
10
60.175
20
-73.175
40
0.5
50
180
51
270
0
ARC
8
0
10
73.175
20
-73.175
40
0.5
50
270
51
0
0
LINE
8
0
10
250.675
20
-59.675
11
263.675
21
-59.675
0
LINE
8
0
10
250.675
20
-73.675
11
263.675
21
-73.675
0
LINE
8
0
10
250.175
20
-60.175
11
250.175
21
-73.175
0
LINE
8
0
10
264.175
20
-60.175
11
264.175
21
-73.175
0
ARC
8
0
10
250.675
20
-60.175
40
0.5
50
90
51
180
0
ARC
8
0
10
263.675
20
-60.175
40
0.5
50
0
51
90
0
ARC
8
0
10
250.675
20
-73.175
40
0.5
50
180
51
270
0
ARC
8
0
10
263.675
20
-73.175
40
0.5
50
270
51
0
0
LINE
8
0
10
41.125
20
-64.4375
11
54.125
21
-64.4375
0
LINE
8
0
10
41.125
20
-78.4375
11
54.125
21
-78.4375
0
LINE
8
0
10
40.625
20
-64.9375
11
40.625
21
-77.9375
0
LINE
8
0
10
54.625
20
-64.9375
11
54.625
21
-77.9375
0
ARC
8
0
10
41.125
20
-64.9375
40
0.5
50
90
51
180
0
ARC
8
0
10
54.125
20
-64.9375
40
0.5
50
0
51
90
0
ARC
8
0
10
41.125
20
-77.9375
40
0.5
50
180
51
270
0
ARC
8
0
10
54.125
20
-77.9375
40
0.5
50
270
51
0
0
LINE
8
0
10
79.225
20
-64.4375
11
92.225
21
-64.4375
0
LINE
8
0
10
79.225
20
-78.4375
11
92.225
21
-78.4375
0
LINE
8
0
10
78.725
20
-64.9375
11
78.725
21
-77.9375
0
LINE
8
0
10
92.725
20
-64.9375
11
92.725
21
-77.9375
0
ARC
8
0
10
79.225
20
-64.9375
40
0.5
50
90
51
180
0
ARC
8
0
10
92.225
20
-64.9375
40
0.5
50
0
51
90
0
ARC
8
0
10
79.225
20
-77.9375
40
0.5
50
180
51
270
0
ARC
8
0
10
92.225
20
-77.9375
40
0.5
50
270
51
0
0
LINE
8
0
10
231.625
20
-64.4375
11
244.625
21
-64.4375
0
LINE
8
0
10
231.625
20
-78.4375
11
244.625
21
-78.4375
0
LINE
8
0
10
231.125
20
-64.9375
11
231.125
21
-77.9375
0
LINE
8
0
10
245.125
20
-64.9375
11
245.125
21
-77.9375
0
ARC
8
0
10
231.625
20
-64.9375
40
0.5
50
90
51
180
0
ARC
8
0
10
244.625
20
-64.9375
40
0.5
50
0
51
90
0
ARC
8
0
10
231.625
20
-77.9375
40
0.5
50
180
51
270
0
ARC
8
0
10
244.625
20
-77.9375
40
0.5
50
270
51
0
0
LINE
8
0
10
269.725
20
-64.4375
11
282.725
21
-64.4375
0
LINE
8
0
10
269.725
20
-78.4375
11
282.725
21
-78.4375
0
LINE
8
0
10
269.225
20
-64.9375
11
269.225
21
-77.9375
0
LINE
8
0
10
283.225
20
-64.9375
11
283.225
21
-77.9375
0
ARC
8
0
10
269.725
20
-64.9375
40
0.5
50
90
51
180
0
ARC
8
0
10
282.725
20
-64.9375
40
0.5
50
0
51
90
0
ARC
8
0
10
269.725
20
-77.9375
40
0.5
50
180
51
270
0
ARC
8
0
10
282.725
20
-77.9375
40
0.5
50
270
51
0
0
LINE
8
0
10
98.275
20
-66.914
11
111.275
21
-66.914
0
LINE
8
0
10
98.275
20
-80.914
11
111.275
21
-80.914
0
LINE
8
0
10
97.775
20
-67.414
11
97.775
21
-80.414
0
LINE
8
0
10
111.775
20
-67.414
11
111.775
21
-80.414
0
ARC
8
0
10
98.275
20
-67.414
40
0.5
50
90
51
180
0
ARC
8
0
10
111.275
20
-67.414
40
0.5
50
0
51
90
0
ARC
8
0
10
98.275
20
-80.414
40
0.5
50
180
51
270
0
ARC
8
0
10
111.275
20
-80.414
40
0.5
50
270
51
0
0
LINE
8
0
10
212.575
20
-66.914
11
225.575
21
-66.914
0
LINE
8
0
10
212.575
20
-80.914
11
225.575
21
-80.914
0
LINE
8
0
10
212.075
20
-67.414
11
212.075
21
-80.414
0
LINE
8
0
10
226.075
20
-67.414
11
226.075
21
-80.414
0
ARC
8
0
10
212.575
20
-67.414
40
0.5
50
90
51
180
0
ARC
8
0
10
225.575
20
-67.414
40
0.5
50
0
51
90
0
ARC
8
0
10
212.575
20
-80.414
40
0.5
50
180
51
270
0
ARC
8
0
10
225.575
20
-80.414
40
0.5
50
270
51
0
0
LINE
8
0
10
3.025
20
-73.9625
11
16.025
21
-73.9625
0
LINE
8
0
10
3.025
20
-87.9625
11
16.025
21
-87.9625
0
LINE
8
0
10
2.525
20
-74.4625
11
2.525
21
-87.4625
0
LINE
8
0
10
16.525
20
-74.4625
11
16.525
21
-87.4625
0
ARC
8
0
10
3.025
20
-74.4625
40
0.5
50
90
51
180
0
ARC
8
0
10
16.025
20
-74.4625
40
0.5
50
0
51
90
0
ARC
8
0
10
3.025
20
-87.4625
40
0.5
50
180
51
270
0
ARC
8
0
10
16.025
20
-87.4625
40
0.5
50
270
51
0
0
LINE
8
0
10
22.075
20
-73.9625
11
35.075
21
-73.9625
0
LINE
8
0
10
22.075
20
-87.9625
11
35.075
21
-87.9625
0
LINE
8
0
10
21.575
20
-74.4625
11
21.575
21
-87.4625
0
LINE
8
0
10
35.575
20
-74.4625
11
35.575
21
-87.4625
0
ARC
8
0
10
22.075
20
-74.4625
40
0.5
50
90
51
180
0
ARC
8
0
10
35.075
20
-74.4625
40
0.5
50
0
51
90
0
ARC
8
0
10
22.075
20
-87.4625
40
0.5
50
180
51
270
0
ARC
8
0
10
35.075
20
-87.4625
40
0.5
50
270
51
0
0
LINE
8
0
10
288.775
20
-73.9625
11
301.775
21
-73.9625
0
LINE
8
0
10
288.775
20
-87.9625
11
301.775
21
-87.9625
0
LINE
8
0
10
288.275
20
-74.4625
11
288.275
21
-87.4625
0
LINE
8
0
10
302.275
20
-74.4625
11
302.275
21
-87.4625
0
ARC
8
0
10
288.775
20
-74.4625
40
0.5
50
90
51
180
0
ARC
8
0
10
301.775
20
-74.4625
40
0.5
50
0
51
90
0
ARC
8
0
10
288.775
20
-87.4625
40
0.5
50
180
51
270
0
ARC
8
0
10
301.775
20
-87.4625
40
0.5
50
270
51
0
0
LINE
8
0
10
307.825
20
-73.9625
11
320.825
21
-73.9625
0
LINE
8
0
10
307.825
20
-87.9625
11
320.825
21
-87.9625
0
LINE
8
0
10
307.325
20
-74.4625
11
307.325
21
-87.4625
0
LINE
8
0
10
321.325
20
-74.4625
11
321.325
21
-87.4625
0
ARC
8
0
10
307.825
20
-74.4625
40
0.5
50
90
51
180
0
ARC
8
0
10
320.825
20
-74.4625
40
0.5
50
0
51
90
0
ARC
8
0
10
307.825
20
-87.4625
40
0.5
50
180
51
270
0
ARC
8
0
10
320.825
20
-87.4625
40
0.5
50
270
51
0
0
LINE
8
0
10
50.65
20
-83.4875
11
63.65
21
-83.4875
0
LINE
8
0
10
50.65
20
-97.4875
11
63.65
21
-97.4875
0
LINE
8
0
10
50.15
20
-83.9875
11
50.15
21
-96.9875
0
LINE
8
0
10
64.15
20
-83.9875
11
64.15
21
-96.9875
0
ARC
8
0
10
50.65
20
-83.9875
40
0.5
50
90
51
180
0
ARC
8
0
10
63.65
20
-83.9875
40
0.5
50
0
51
90
0
ARC
8
0
10
50.65
20
-96.9875
40
0.5
50
180
51
270
0
ARC
8
0
10
63.65
20
-96.9875
40
0.5
50
270
51
0
0
LINE
8
0
10
260.2
20
-83.4875
11
273.2
21
-83.4875
0
LINE
8
0
10
260.2
20
-97.4875
11
273.2
21
-97.4875
0
LINE
8
0
10
259.7
20
-83.9875
11
259.7
21
-96.9875
0
LINE
8
0
10
273.7
20
-83.9875
11
273.7
21
-96.9875
0
ARC
8
0
10
260.2
20
-83.9875
40
0.5
50
90
51
180
0
ARC
8
0
10
273.2
20
-83.9875
40
0.5
50
0
51
90
0
ARC
8
0
10
260.2
20
-96.9875
40
0.5
50
180
51
270
0
ARC
8
0
10
273.2
20
-96.9875
40
0.5
50
270
51
0
0
LINE
8
0
10
69.7
20
-83.4875
11
82.7
21
-83.4875
0
LINE
8
0
10
69.7
20
-97.4875
11
82.7
21
-97.4875
0
LINE
8
0
10
69.2
20
-83.9875
11
69.2
21
-96.9875
0
LINE
8
0
10
83.2
20
-83.9875
11
83.2
21
-96.9875
0
ARC
8
0
10
69.7
20
-83.9875
40
0.5
50
90
51
180
0
ARC
8
0
10
82.7
20
-83.9875
40
0.5
50
0
51
90
0
ARC
8
0
10
69.7
20
-96.9875
40
0.5
50
180
51
270
0
ARC
8
0
10
82.7
20
-96.9875
40
0.5
50
270
51
0
0
LINE
8
0
10
241.15
20
-83.4875
11
254.15
21
-83.4875
0
LINE
8
0
10
241.15
20
-97.4875
11
254.15
21
-97.4875
0
LINE
8
0
10
240.65
20
-83.9875
11
240.65
21
-96.9875
0
LINE
8
0
10
254.65
20
-83.9875
11
254.65
21
-96.9875
0
ARC
8
0
10
241.15
20
-83.9875
40
0.5
50
90
51
180
0
ARC
8
0
10
254.15
20
-83.9875
40
0.5
50
0
51
90
0
ARC
8
0
10
241.15
20
-96.9875
40
0.5
50
180
51
270
0
ARC
8
0
10
254.15
20
-96.9875
40
0.5
50
270
51
0
0
LINE
8
0
10
91.9850265
20
-84.5043758
11
104.6768745
21
-87.3180907
0
LINE
8
0
10
88.9548719
20
-98.1725199
11
101.6467199
21
-100.9862348
0
LINE
8
0
10
91.3886586
20
-84.884304
11
88.5749437
21
-97.576152
0
LINE
8
0
10
105.0568027
20
-87.9144586
11
102.2430878
21
-100.6063066
0
ARC
8
0
10
91.8768066
20
-84.9925238
40
0.5
50
77.5
51
167.5
0
ARC
8
0
10
104.5686547
20
-87.8062387
40
0.5
50
347.5
51
77.5
0
ARC
8
0
10
89.0630917
20
-97.6843719
40
0.5
50
167.5
51
257.5
0
ARC
8
0
10
101.7549398
20
-100.4980868
40
0.5
50
257.5
51
347.5
0
LINE
8
0
10
121.5725945
20
-73.0553467
11
133.3545957
21
-78.5493841
0
LINE
8
0
10
115.6559389
20
-85.7436557
11
127.4379401
21
-91.2376931
0
LINE
8
0
10
120.9081315
20
-73.2971915
11
115.4140941
21
-85.0791927
0
LINE
8
0
10
133.5964405
20
-79.2138471
11
128.1024031
21
-90.9958483
0
ARC
8
0
10
121.3612854
20
-73.5085006
40
0.5
50
65
51
155
0
ARC
8
0
10
133.1432866
20
-79.002538
40
0.5
50
335
51
65
0
ARC
8
0
10
115.867248
20
-85.2905018
40
0.5
50
155
51
245
0
ARC
8
0
10
127.6492492
20
-90.7845392
40
0.5
50
245
51
335
0
LINE
8
0
10
113.5217166
20
-90.3205101
11
125.3037178
21
-95.8145475
0
LINE
8
0
10
107.605061
20
-103.0088191
11
119.3870622
21
-108.5028565
0
LINE
8
0
10
112.8572536
20
-90.5623549
11
107.3632162
21
-102.3443561
0
LINE
8
0
10
125.5455626
20
-96.4790105
11
120.0515252
21
-108.2610117
0
ARC
8
0
10
113.3104075
20
-90.773664
40
0.5
50
65
51
155
0
ARC
8
0
10
125.0924087
20
-96.2677014
40
0.5
50
335
51
65
0
ARC
8
0
10
107.8163701
20
-102.5556652
40
0.5
50
155
51
245
0
ARC
8
0
10
119.5983713
20
-108.0497026
40
0.5
50
245
51
335
0
LINE
8
0
10
146.4139761
20
-86.1858477
11
156.2992536
21
-94.6286724
0
LINE
8
0
10
137.3217034
20
-96.8315312
11
147.2069809
21
-105.2743559
0
LINE
8
0
10
145.7090491
20
-86.2413267
11
137.2662244
21
-96.1266042
0
LINE
8
0
10
156.3547326
20
-95.3335994
11
147.9119079
21
-105.2188769
0
ARC
8
0
10
146.089252
20
-86.5660507
40
0.5
50
49.5
51
139.5
0
ARC
8
0
10
155.9745296
20
-95.0088753
40
0.5
50
319.5
51
49.5
0
ARC
8
0
10
137.6464274
20
-96.4513283
40
0.5
50
139.5
51
229.5
0
ARC
8
0
10
147.531705
20
-104.8941529
40
0.5
50
229.5
51
319.5
0
LINE
8
0
10
134.0419908
20
-100.6715813
11
143.9272683
21
-109.114406
0
LINE
8
0
10
124.9497181
20
-111.3172648
11
134.8349956
21
-119.7600895
0
LINE
8
0
10
133.3370638
20
-100.7270603
11
124.8942391
21
-110.6123378
0
LINE
8
0
10
143.9827473
20
-109.819333
11
135.5399226
21
-119.7046105
0
ARC
8
0
10
133.7172667
20
-101.0517843
40
0.5
50
49.5
51
139.5
0
ARC
8
0
10
143.6025443
20
-109.4946089
40
0.5
50
319.5
51
49.5
0
ARC
8
0
10
125.2744421
20
-110.9370619
40
0.5
50
139.5
51
229.5
0
ARC
8
0
10
135.1597197
20
-119.3798865
40
0.5
50
229.5
51
319.5
0
LINE
8
0
10
167.5507464
20
-94.6286724
11
177.4360239
21
-86.1858477
0
LINE
8
0
10
176.6430191
20
-105.2743559
11
186.5282966
21
-96.8315312
0
LINE
8
0
10
167.4952674
20
-95.3335994
11
175.9380921
21
-105.2188769
0
LINE
8
0
10
178.1409509
20
-86.2413267
11
186.5837756
21
-96.1266042
0
ARC
8
0
10
167.8754704
20
-95.0088753
40
0.5
50
130.5
51
220.5
0
ARC
8
0
10
177.760748
20
-86.5660507
40
0.5
50
40.5
51
130.5
0
ARC
8
0
10
176.318295
20
-104.8941529
40
0.5
50
220.5
51
310.5
0
ARC
8
0
10
186.2035726
20
-96.4513283
40
0.5
50
310.5
51
40.5
0
LINE
8
0
10
179.9227317
20
-109.114406
11
189.8080092
21
-100.6715813
0
LINE
8
0
10
189.0150044
20
-119.7600895
11
198.9002819
21
-111.3172648
0
LINE
8
0
10
179.8672527
20
-109.819333
11
188.3100774
21
-119.7046105
0
LINE
8
0
10
190.5129362
20
-100.7270603
11
198.9557609
21
-110.6123378
0
ARC
8
0
10
180.2474557
20
-109.4946089
40
0.5
50
130.5
51
220.5
0
ARC
8
0
10
190.1327333
20
-101.0517843
40
0.5
50
40.5
51
130.5
0
ARC
8
0
10
188.6902803
20
-119.3798865
40
0.5
50
220.5
51
310.5
0
ARC
8
0
10
198.5755579
20
-110.9370619
40
0.5
50
310.5
51
40.5
0
LINE
8
0
10
190.4954043
20
-78.5493841
11
202.2774055
21
-73.0553467
0
LINE
8
0
10
196.4120599
20
-91.2376931
11
208.1940611
21
-85.7436557
0
LINE
8
0
10
190.2535595
20
-79.2138471
11
195.7475969
21
-90.9958483
0
LINE
8
0
10
202.9418685
20
-73.2971915
11
208.4359059
21
-85.0791927
0
ARC
8
0
10
190.7067134
20
-79.002538
40
0.5
50
115
51
205
0
ARC
8
0
10
202.4887146
20
-73.5085006
40
0.5
50
25
51
115
0
ARC
8
0
10
196.2007508
20
-90.7845392
40
0.5
50
205
51
295
0
ARC
8
0
10
207.982752
20
-85.2905018
40
0.5
50
295
51
25
0
LINE
8
0
10
198.5462822
20
-95.8145475
11
210.3282834
21
-90.3205101
0
LINE
8
0
10
204.4629378
20
-108.5028565
11
216.244939
21
-103.0088191
0
LINE
8
0
10
198.3044374
20
-96.4790105
11
203.7984748
21
-108.2610117
0
LINE
8
0
10
210.9927464
20
-90.5623549
11
216.4867838
21
-102.3443561
0
ARC
8
0
10
198.7575913
20
-96.2677014
40
0.5
50
115
51
205
0
ARC
8
0
10
210.5395925
20
-90.773664
40
0.5
50
25
51
115
0
ARC
8
0
10
204.2516287
20
-108.0497026
40
0.5
50
205
51
295
0
ARC
8
0
10
216.0336299
20
-102.5556652
40
0.5
50
295
51
25
0
LINE
8
0
10
219.1731255
20
-87.3180907
11
231.8649735
21
-84.5043758
0
LINE
8
0
10
222.2032801
20
-100.9862348
11
234.8951281
21
-98.1725199
0
LINE
8
0
10
218.7931973
20
-87.9144586
11
221.6069122
21
-100.6063066
0
LINE
8
0
10
232.4613414
20
-84.884304
11
235.2750563
21
-97.576152
0
ARC
8
0
10
219.2813453
20
-87.8062387
40
0.5
50
102.5
51
192.5
0
ARC
8
0
10
231.9731934
20
-84.9925238
40
0.5
50
12.5
51
102.5
0
ARC
8
0
10
222.0950602
20
-100.4980868
40
0.5
50
192.5
51
282.5
0
ARC
8
0
10
234.7869083
20
-97.6843719
40
0.5
50
282.5
51
12.5
0
LINE
8
0
10
0
20
-119.7408354
11
323.85
21
-119.7408354
0
LINE
8
0
10
0
20
0
11
323.85
21
0
0
LINE
8
0
10
0
20
-119.7408354
11
0
21
0
0
LINE
8
0
10
323.85
20
-119.7408354
11
323.85
21
0
0
ENDSEC
0
EOF